<svg id="Layer_1" height="50" fill="white" viewBox="0 0 128 128" width="50" xmlns="http://www.w3.org/2000/svg" data-name="Layer 1"><path d="m80.442 110.75h-59.665v-93.5h50.665v12.75a1.75 1.75 0 0 0 1.75 1.75h12.749v23.5a1.75 1.75 0 0 0 3.5 0v-25.25a1.75 1.75 0 0 0 -.513-1.237l-14.5-14.5a1.75 1.75 0 0 0 -1.237-.513h-54.164a1.75 1.75 0 0 0 -1.75 1.75v97a1.75 1.75 0 0 0 1.75 1.75h61.415a1.75 1.75 0 0 0 0-3.5zm-5.5-91.025 8.524 8.524h-8.524z"/><path d="m50.164 55.667h9.058a1.75 1.75 0 0 0 1.75-1.75v-18.906l1.26.667a1.75 1.75 0 1 0 1.639-3.092l-17.7-9.378a1.748 1.748 0 0 0 -1.647 0l-17.467 9.378a1.75 1.75 0 0 0 1.655 3.084l1.233-.662v18.909a1.75 1.75 0 0 0 1.75 1.75h9.058a1.75 1.75 0 0 0 1.75-1.75v-8.024h5.911v8.024a1.75 1.75 0 0 0 1.75 1.75zm-9.411-13.274a1.75 1.75 0 0 0 -1.753 1.75v8.024h-5.555v-19.037l11.912-6.392 12.115 6.419v19.01h-5.558v-8.024a1.75 1.75 0 0 0 -1.75-1.75z"/><path d="m67.149 63.09a1.75 1.75 0 0 0 -1.75-1.75h-37.652a1.75 1.75 0 1 0 0 3.5h37.653a1.75 1.75 0 0 0 1.749-1.75z"/><path d="m27.747 73.083h17.917a1.75 1.75 0 0 0 0-3.5h-17.917a1.75 1.75 0 1 0 0 3.5z"/><path d="m59.222 77.827h-31.475a1.75 1.75 0 1 0 0 3.5h31.475a1.75 1.75 0 1 0 0-3.5z"/><path d="m27.747 89.57h17.917a1.75 1.75 0 0 0 0-3.5h-17.917a1.75 1.75 0 1 0 0 3.5z"/><path d="m60.972 96.063a1.75 1.75 0 0 0 -1.75-1.75h-31.475a1.75 1.75 0 1 0 0 3.5h31.475a1.75 1.75 0 0 0 1.75-1.75z"/><path d="m27.884 102.558a1.75 1.75 0 1 0 0 3.5h17.78a1.75 1.75 0 0 0 0-3.5z"/><path d="m81.271 104.612a19.525 19.525 0 0 1 2.813-37.631l-1.643 2.349a1.75 1.75 0 1 0 2.868 2.006l3.816-5.455a1.75 1.75 0 0 0 -.425-2.433l-5.316-3.748a1.75 1.75 0 0 0 -2.019 2.859l1.524 1.076a23.037 23.037 0 0 0 -2.769 44.286 1.75 1.75 0 1 0 1.15-3.3z"/><path d="m110.723 86.16a23.042 23.042 0 0 0 -15.536-21.785 1.75 1.75 0 0 0 -1.139 3.311 19.527 19.527 0 0 1 -2.748 37.656l1.646-2.353a1.75 1.75 0 0 0 -2.868-2.006l-3.816 5.455a1.75 1.75 0 0 0 .425 2.433l5.313 3.753a1.75 1.75 0 1 0 2.019-2.859l-1.554-1.1a23.063 23.063 0 0 0 18.258-22.505z"/><path d="m97.943 80.73a1.75 1.75 0 1 0 -2.7-2.231l-10.289 12.439-5.88-5.638a1.75 1.75 0 1 0 -2.423 2.525l7.239 6.944a1.75 1.75 0 0 0 1.211.487h.1a1.753 1.753 0 0 0 1.248-.631z"/></svg>
