<?xml version="1.0" encoding="iso-8859-1"?>
<!-- Generator: Adobe Illustrator 19.0.0, SVG Export Plug-In . SVG Version: 6.00 Build 0)  -->
<svg version="1.1" id="Layer_1" xmlns="http://www.w3.org/2000/svg" xmlns:xlink="http://www.w3.org/1999/xlink" x="0px" y="0px"
	 viewBox="0 0 512.014 512.014"
	 width="50" fill="white" style="enable-background:new 0 0 512.014 512.014;" xml:space="preserve">
<g>
	<g>
		<g>
			<path d="M213.355,276.327c6.229-4.885,13.269-8.32,20.928-10.24l53.525-13.376c3.819-0.96,6.827-3.947,7.765-7.765l6.357-25.451
				c0.939-3.755-0.235-7.723-3.051-10.368c-12.395-11.605-20.565-28.608-21.909-45.504c-0.448-5.525-7.189-9.813-12.757-9.813
				c-1.173,0-2.155-0.875-2.304-2.027l-2.688-27.797l3.093-0.789c3.072,0,5.973-1.301,8-3.605c2.027-2.283,2.965-5.333,2.581-8.384
				c-0.832-6.571-2.987-24.981-2.987-31.125c0-16.085,0-34.304,47.872-34.773c2.197-0.021,4.331-0.704,6.101-1.984
				c15.36-11.008,32.64-11.008,40.939-11.008c17.003,0,28.395,4.8,34.837,14.656c7.317,11.157,4.437,15.829,1.387,19.072
				l-6.507,6.507c-1.877,1.877-2.987,4.373-3.115,7.019l-1.579,32.491c-0.128,2.88,2.048,6.997,4.032,9.109
				c2.005,2.112,5.888,4.629,8.789,4.651l-3.243,25.984c-0.149,1.152-1.152,2.027-2.944,2.027c-5.568,0-10.197,4.267-10.645,9.813
				c-1.365,17.152-10.155,34.923-22.955,46.421c-2.944,2.624-4.181,6.677-3.221,10.517l6.101,24.405
				c0.96,3.819,3.947,6.827,7.765,7.765l53.525,13.376c24.896,6.251,42.283,28.523,42.283,54.208
				c0,5.909,4.779,10.667,10.667,10.667c5.888,0,10.667-4.8,10.688-10.709c0-35.456-24.043-66.24-58.453-74.837l-47.296-11.84
				l-3.072-12.245c12.459-13.035,21.12-30.208,24.235-47.979c7.701-3.157,13.419-10.261,14.507-18.944l3.243-25.984
				c0.832-6.656-1.216-13.376-5.632-18.432c-1.899-2.176-4.16-3.947-6.635-5.291l0.96-20.011l3.819-3.819
				c6.827-7.275,16.043-22.848,1.152-45.611c-7.275-11.072-22.293-24.299-52.693-24.299c-9.259,0-30.4,0-50.517,13.013
				c-58.176,1.621-65.728,30.699-65.728,56.043c0,5.355,1.109,16.192,2.005,24.192c-2.752,1.365-5.269,3.264-7.339,5.611
				c-4.48,5.077-6.592,11.861-5.739,18.581l3.243,25.984c1.109,8.896,7.125,16.149,16.021,19.179
				c3.072,17.088,11.285,33.728,23.019,46.528l-3.349,13.44l-47.317,11.819c-10.581,2.645-20.331,7.424-28.928,14.165
				c-4.629,3.627-5.44,10.347-1.813,14.976C202.005,279.164,208.725,279.954,213.355,276.327z"/>
			<path d="M510.891,400.892c-14.827-29.632-47.616-44.715-79.744-36.672l-69.12,17.28c-3.051-26.667-18.816-42.389-50.389-50.261
				L126.592,290.13c0.576-4.053,1.024-7.936,1.344-11.563c0.277-3.243-0.917-6.443-3.285-8.661
				c-18.283-17.323-91.392-22.933-113.365-24.235c-3.008-0.085-5.824,0.875-7.957,2.88C1.195,250.556,0,253.394,0,256.338v192
				c0,5.888,4.779,10.667,10.667,10.667h64c4.608,0,8.704-2.965,10.133-7.36c0.277-0.853,1.728-5.333,3.925-12.267l152.832,50.944
				c17.941,6.763,30.315,10.688,44.224,10.688c21.632-0.021,46.976-9.472,102.656-32.277l117.333-53.333
				c2.624-1.195,4.672-3.413,5.632-6.144C512.363,406.503,512.192,403.495,510.891,400.892z M66.88,437.671H21.312V267.772
				c34.283,2.709,71.296,8.597,84.736,15.125C100.395,329.618,74.816,412.604,66.88,437.671z M379.947,449.148
				c-89.685,36.757-92.8,35.584-131.243,21.077L94.997,418.983c8.768-29.035,20.992-72.107,27.989-107.776l183.744,40.832
				c23.637,5.909,33.131,15.211,34.432,34.688l-20.48,5.12c-7.573,1.92-15.659,2.091-23.381,0.555l-92.544-18.517
				c-5.867-1.259-11.392,2.581-12.544,8.363c-1.152,5.781,2.581,11.392,8.363,12.544l92.565,18.517
				c4.8,0.96,9.728,1.429,14.635,1.429c6.101,0,12.224-0.725,18.091-2.219l28.608-7.147c0.043,0,0.064,0,0.107,0l81.728-20.437
				c18.645-4.629,37.611,1.856,49.387,16.128L379.947,449.148z"/>
		</g>
	</g>
</g>
<g>
</g>
<g>
</g>
<g>
</g>
<g>
</g>
<g>
</g>
<g>
</g>
<g>
</g>
<g>
</g>
<g>
</g>
<g>
</g>
<g>
</g>
<g>
</g>
<g>
</g>
<g>
</g>
<g>
</g>
</svg>
